<?xml version="1.0" encoding="utf-8"?>
<!-- Generator: Adobe Illustrator 24.3.0, SVG Export Plug-In . SVG Version: 6.00 Build 0)  -->
<svg version="1.1" id="Layer_1" xmlns="http://www.w3.org/2000/svg" xmlns:xlink="http://www.w3.org/1999/xlink" x="0px" y="0px"
	 viewBox="0 0 400 410.16" style="enable-background:new 0 0 400 410.16;" xml:space="preserve">
<g>
	<path d="M0,39c5.83-0.06,11.66-0.16,17.49-0.16c64.49-0.01,128.97,0.03,193.46-0.09c4.77-0.01,8.36,1.21,12.04,4.43
		c28.19,24.66,56.62,49.05,84.87,73.65c1.52,1.33,2.95,3.76,2.96,5.68c0.16,47.99,0.13,95.98,0.12,143.97
		c0,0.96-0.14,1.93-0.23,3.16c-4.5,0-8.75,0-13.55,0c0-47.09,0-94.14,0-141.77c-29.93,0-59.31,0-89.14,0c0-25.83,0-51.08,0-76.68
		c-64.82,0-129.18,0-193.94,0c0,29.94,0,59.71,0,89.89C9.13,141.4,4.56,141.7,0,142C0,107.67,0,73.33,0,39z M286.99,115.66
		c-22.09-19.09-43.18-37.31-64.73-55.92c0,19.35,0,37.55,0,55.92C243.62,115.66,264.56,115.66,286.99,115.66z"/>
	<path d="M0,154c4.45,0,8.91,0,13.78,0c0,81.59,0,162.49,0,243.78c94.47,0,188.5,0,283.13,0c0-38.12,0-76.33,0-114.81
		c4.85,0,9.1,0,13.69,0c0,42.23,0,84.3,0,126.84c-1.35,0.12-2.78,0.35-4.2,0.35c-101.3,0.02-202.61,0.01-303.91,0.01
		c-0.83,0-1.66-0.1-2.49-0.16C0,324.67,0,239.33,0,154z"/>
	<path d="M400,90c-4.46,0-8.92,0-13.83,0c0-21.49,0-42.58,0-64.08c-5.46,0-10.47,0-15.9,0c0,27.92,0,55.54,0,83.53
		c-4.66,0-8.91,0-13.69,0c0-10.51,0-21.1,0-32.1c-5.39,0-10.27,0-15.52,0c0,25.53,0,51.1,0,77.08c4.86,0,9.73,0,15.13,0
		c0-10.39,0-20.64,0-31.31c4.75,0,8.97,0,13.97,0c0,1.49,0,3.08,0,4.67c0,23,0.06,46-0.09,68.99c-0.02,2.51-0.75,5.27-1.97,7.47
		c-6.23,11.18-12.72,22.21-19.54,34.02c-3.36-5.71-6-11.2-9.56-16.02c-10.25-13.88-12.91-29.14-12.62-46.3
		c0.87-51.98,0.31-103.99,0.31-155.98c0-1.97,0-3.94,0-6.36c4.97,0,9.42,0,14.34,0C341.38,8.79,341.69,4.4,342,0c4.33,0,8.67,0,13,0
		c0,4.27,0,8.55,0,13c15.59,0,30.29,0,45,0C400,38.67,400,64.33,400,90z M341.14,25.67c0,13.35,0,26.16,0,38.95
		c5.19,0,9.93,0,14.73,0c0-13.14,0-25.98,0-38.95C350.81,25.67,346.18,25.67,341.14,25.67z M340.7,167.06
		c0,7.5,0.59,14.52-0.15,21.4c-0.95,8.92,3.16,15.57,8.2,22.8c2.6-4.85,6.58-9.17,7.08-13.87c1.07-9.94,0.33-20.07,0.33-30.33
		C350.87,167.06,346.13,167.06,340.7,167.06z"/>
	<path d="M147.18,166.05c-34.24,0-68.16,0-102.36,0c0-29.64,0-59.03,0-88.64c34.23,0,68.13,0,102.36,0
		C147.18,107.04,147.18,136.43,147.18,166.05z M109.64,130.78c11.27,4.13,18.99,11.81,23.58,22.95c0-21.43,0-42.87,0-64.2
		c-25.06,0-49.64,0-74.15,0c0,21.61,0,42.86,0,64.1c4.39-11.42,12.51-18.65,23.57-23.02c-10.02-9.62-11.1-19.11-3.37-27.26
		c8.16-8.61,23.93-9.04,32.69-0.89C120.5,110.41,119.81,119.51,109.64,130.78z M117.21,153.88c-4.07-8.99-12.37-13.6-22.63-13.1
		c-9.26,0.45-16.89,5.52-19.37,13.1C89.1,153.88,102.9,153.88,117.21,153.88z M103.9,115.63c0.14-3.7-3.19-6.77-7.51-6.91
		c-4.35-0.14-7.94,2.55-8.24,6.17c-0.31,3.78,3.34,7.16,7.79,7.22C100.23,122.19,103.77,119.3,103.9,115.63z"/>
	<path d="M103.69,229.97c0-3.72,0-7.17,0-11.05c51.8,0,103.45,0,155.35,0c0,3.61,0,7.06,0,11.05
		C207.44,229.97,155.84,229.97,103.69,229.97z"/>
	<path d="M103.81,281.63c0-3.73,0-7.33,0-11.32c51.6,0,103.14,0,155.09,0c0,3.61,0,7.31,0,11.32
		C207.24,281.63,155.68,281.63,103.81,281.63z"/>
	<path d="M103.77,332.87c0-4.05,0-7.65,0-11.52c51.77,0,103.27,0,155.15,0c0,3.82,0,7.52,0,11.52
		C207.26,332.87,155.74,332.87,103.77,332.87z"/>
	<path d="M87.75,230.2c-14.15,0-28.25,0-42.8,0c0-12.17,0-24.37,0-36.97c14.11,0,28.29,0,42.8,0
		C87.75,205.45,87.75,217.67,87.75,230.2z M58.67,218.14c5.35,0,10.19,0,15.12,0c0-4.54,0-8.72,0-12.83c-5.25,0-10.12,0-15.12,0
		C58.67,209.64,58.67,213.59,58.67,218.14z"/>
	<path d="M87.86,295.93c0,12.4,0,24.49,0,36.91c-14.41,0-28.61,0-43.09,0c0-12.28,0-24.37,0-36.91
		C59,295.93,73.19,295.93,87.86,295.93z M58.77,320.79c5.13,0,10,0,15.07,0c0-4.42,0-8.61,0-12.87c-5.18,0-10.03,0-15.07,0
		C58.77,312.38,58.77,316.44,58.77,320.79z"/>
	<path d="M87.81,244.39c0,12.43,0,24.66,0,37.22c-14.33,0-28.53,0-43.02,0c0-12.41,0-24.65,0-37.22
		C59.17,244.39,73.36,244.39,87.81,244.39z M73.81,269.7c0-4.79,0-9.02,0-13.22c-5.22,0-10.08,0-14.89,0c0,4.63,0,8.84,0,13.22
		C64.06,269.7,68.8,269.7,73.81,269.7z"/>
	<path d="M184.9,295.93c0,3.76,0,7.23,0,11.14c-26.95,0-53.78,0-81.02,0c0-3.54,0-7.11,0-11.14
		C130.66,295.93,157.52,295.93,184.9,295.93z"/>
	<path d="M184.87,193.04c0,4.08,0,7.68,0,11.58c-27.06,0-53.91,0-81.06,0c0-3.9,0-7.64,0-11.58
		C130.86,193.04,157.61,193.04,184.87,193.04z"/>
	<path d="M184.95,244.37c0,4,0,7.47,0,11.32c-26.96,0-53.8,0-81.05,0c0-3.61,0-7.32,0-11.32
		C130.85,244.37,157.67,244.37,184.95,244.37z"/>
	<path d="M185.42,360.09c4.78,0,9.36,0,14.26,0c0,3.8,0,7.5,0,11.47c-4.77,0-9.34,0-14.26,0
		C185.42,367.88,185.42,364.31,185.42,360.09z"/>
	<path d="M215.25,360.12c4.79,0,9.34,0,14.17,0c0,3.86,0,7.42,0,11.35c-4.77,0-9.3,0-14.17,0
		C215.25,367.82,215.25,364.25,215.25,360.12z"/>
	<path d="M244.81,371.52c0-3.76,0-7.34,0-11.31c4.61,0,9.14,0,14.09,0c0,3.62,0,7.31,0,11.31
		C254.22,371.52,249.67,371.52,244.81,371.52z"/>
</g>
</svg>
