<svg width="164" height="149" viewBox="0 0 164 149" fill="none" xmlns="http://www.w3.org/2000/svg">
<mask id="path-1-inside-1_1_386" fill="white">
<path d="M67.0059 57.6804C66.7008 57.6804 66.3988 57.7345 66.117 57.8397C65.8352 57.9448 65.5791 58.0989 65.3634 58.2932L52.587 69.8027C51.2283 69.0927 49.6853 68.7193 48.1146 68.7203C43.1746 68.7203 39.1557 72.3407 39.1557 76.7909C39.1557 81.241 43.1746 84.8614 48.1146 84.8614C53.0546 84.8614 57.0734 81.241 57.0734 76.7909C57.0734 75.3238 56.6345 73.9482 55.872 72.7616L67.9681 61.8649H92.186C92.3473 62.7001 92.7911 63.4701 93.4568 64.0693L98.3497 68.477C99.2177 69.259 100.372 69.6897 101.599 69.6897C102.827 69.6897 103.981 69.259 104.849 68.477C106.707 66.8025 109.07 66.8414 110.662 67.4353C112.254 68.0293 113.955 69.5077 113.955 71.875C113.955 74.1578 116.017 76.0149 118.551 76.0149H125.47C128.004 76.0149 130.066 74.1578 130.066 71.875C130.066 69.5118 131.768 68.0346 133.361 67.4404C134.954 66.8459 137.318 66.8058 139.172 68.477C140.04 69.259 141.194 69.6897 142.422 69.6897C143.65 69.6897 144.804 69.259 145.672 68.477L150.564 64.0693C150.992 63.6858 151.332 63.2296 151.563 62.7272C151.794 62.2247 151.912 61.686 151.91 61.1421C151.91 60.0361 151.432 58.9965 150.564 58.2149C148.71 56.544 148.754 54.4149 149.414 52.9798C150.074 51.5447 151.714 50.011 154.337 50.011C156.871 50.011 158.932 48.1539 158.932 45.8712V39.6377C158.932 37.3552 156.871 35.4981 154.337 35.4981C151.714 35.4981 150.074 33.9647 149.414 32.5294C148.754 31.0943 148.71 28.9652 150.564 27.2943C150.992 26.9108 151.332 26.4546 151.563 25.9521C151.794 25.4497 151.912 24.9109 151.91 24.3671C151.91 23.2611 151.432 22.2212 150.564 21.4399L145.672 17.0318C144.804 16.2499 143.65 15.8195 142.422 15.8195C141.195 15.8195 140.04 16.2499 139.173 17.0318C137.318 18.7027 134.955 18.6633 133.361 18.0685C131.768 17.4739 130.066 15.9967 130.066 13.6336C130.066 11.3508 128.004 9.49367 125.471 9.49367H118.551C116.017 9.49367 113.956 11.3508 113.956 13.6336C113.956 15.9967 112.254 17.4739 110.66 18.0685C109.067 18.6627 106.704 18.7027 104.849 17.0315C103.057 15.4177 100.141 15.4177 98.3497 17.0315L93.4568 21.4393C92.7899 22.038 92.3453 22.8081 92.184 23.6437H67.9678L55.872 12.7473C56.6601 11.5232 57.0746 10.1331 57.0734 8.718C57.0734 4.26784 53.0546 0.647461 48.1146 0.647461C43.1746 0.647461 39.1557 4.26784 39.1557 8.718C39.1557 13.1681 43.1746 16.7885 48.1146 16.7885C49.7427 16.7885 51.2697 16.3931 52.587 15.7065L65.3634 27.216C65.5791 27.4103 65.8351 27.5644 66.117 27.6696C66.3988 27.7747 66.7008 27.8288 67.0059 27.8287H93.9691C95.2911 29.4004 95.1988 31.2432 94.6072 32.5297C93.9472 33.965 92.3074 35.4984 89.6841 35.4984C87.1504 35.4984 85.0889 37.3555 85.0889 39.638V40.6624H66.7656C65.7397 37.2237 62.2507 34.6842 58.114 34.6842C53.174 34.6842 49.1551 38.3046 49.1551 42.7547C49.1551 47.2049 53.174 50.8253 58.114 50.8253C62.2507 50.8253 65.7397 48.2857 66.7656 44.8471H85.0889V45.8715C85.0889 48.1542 87.1504 50.0113 89.6841 50.0113C92.3074 50.0113 93.9472 51.5447 94.6072 52.9801C95.1985 54.2663 95.2907 56.1091 93.9691 57.6807L67.0059 57.6804ZM48.1146 80.677C45.7361 80.677 43.801 78.9338 43.801 76.7912C43.801 74.6486 45.7361 72.9054 48.1146 72.9054C50.493 72.9054 52.4281 74.6486 52.4281 76.7912C52.4278 78.9338 50.493 80.677 48.1146 80.677ZM48.1146 12.6038C45.7361 12.6038 43.801 10.8606 43.801 8.718C43.801 6.57542 45.7361 4.83218 48.1146 4.83218C50.493 4.83218 52.4281 6.57542 52.4281 8.718C52.4281 10.8606 50.493 12.6038 48.1146 12.6038ZM58.114 46.6405C55.7356 46.6405 53.8005 44.8973 53.8005 42.7547C53.8005 40.6122 55.7356 38.8689 58.114 38.8689C60.4924 38.8689 62.4275 40.6122 62.4275 42.7547C62.4275 44.8973 60.4924 46.6405 58.114 46.6405ZM89.7342 45.8266V39.6828C93.8218 39.6655 97.3307 37.5415 98.8992 34.1309C100.468 30.7201 99.6534 26.9831 96.7766 24.3671L101.599 20.0224C104.503 22.6143 108.652 23.3472 112.438 21.9345C116.224 20.5216 118.582 17.3609 118.601 13.6784H125.421C125.44 17.3609 127.798 20.5219 131.584 21.9345C135.37 23.3472 139.518 22.6143 142.422 20.0224L147.245 24.3671C144.368 26.9831 143.554 30.7198 145.123 34.1309C146.691 37.5418 150.2 39.6658 154.287 39.6828V45.8266C150.2 45.844 146.691 47.968 145.123 51.3785C143.554 54.7894 144.368 58.5261 147.245 61.1424L142.423 65.487C139.519 62.8952 135.37 62.162 131.584 63.5749C127.798 64.9879 125.44 68.1482 125.421 71.8311H118.601C118.582 68.1449 116.225 64.9825 112.44 63.5701C108.655 62.1578 104.506 62.8928 101.599 65.4873L96.7766 61.1427C99.6537 58.5267 100.468 54.7897 98.8992 51.3788C97.331 47.968 93.8221 45.844 89.7342 45.8266ZM122.01 60.0786C132.614 60.0786 141.241 52.3073 141.241 42.7547C141.241 33.2022 132.614 25.4309 122.01 25.4309C111.407 25.4309 102.78 33.2022 102.78 42.7547C102.78 52.3073 111.407 60.0786 122.01 60.0786ZM122.01 29.6159C130.053 29.6159 136.596 35.5101 136.596 42.755C136.596 50 130.053 55.8942 122.01 55.8942C113.968 55.8942 107.425 50 107.425 42.755C107.425 35.5101 113.968 29.6159 122.01 29.6159ZM162.825 110.458C160.543 106.899 155.473 105.676 151.522 107.73L117.512 125.418L89.2505 116.546C89.5973 116.186 89.9206 115.809 90.2187 115.415L107.816 113.104C112.763 112.455 116.219 109.227 116.219 105.255C116.219 100.915 112.299 97.3836 107.481 97.3836H84.3367C82.658 96.7351 80.8503 96.4014 79.0237 96.4029C77.0593 96.4017 75.1185 96.7884 73.3378 97.5357L73.3368 97.534L40.0904 109.537H24.0161V104.336C24.0161 103.781 23.7714 103.249 23.3358 102.856C22.9003 102.464 22.3095 102.244 21.6935 102.244H2.32268C1.70666 102.244 1.11588 102.464 0.680296 102.856C0.24471 103.249 0 103.781 0 104.336V146.216C0 146.771 0.24471 147.303 0.680296 147.696C1.11588 148.088 1.70666 148.308 2.32268 148.308H21.6935C22.3095 148.308 22.9003 148.088 23.3358 147.696C23.7714 147.303 24.0161 146.771 24.0161 146.216V141.044C31.2718 141.216 40.4832 142.131 50.1867 143.096C63.2634 144.397 78.0296 145.865 91.4653 145.865C91.9049 145.865 92.3429 145.864 92.7796 145.86C108.905 145.742 120.416 143.396 127.97 138.688L159.872 120.599C163.759 118.395 165.056 113.941 162.825 110.458ZM118.519 133.232L121.101 137.392C119.764 137.947 118.344 138.439 116.848 138.872L118.519 133.232ZM111.573 105.255C111.573 107.415 109.35 108.674 107.146 108.963L92.2985 110.913C92.4611 110.159 92.5487 109.382 92.5487 108.586C92.5487 105.974 91.6285 103.554 90.069 101.568H107.481C109.737 101.568 111.573 103.222 111.573 105.255ZM87.9033 108.586C87.9033 112.997 83.9203 116.585 79.0241 116.585C74.1279 116.585 70.1445 112.997 70.1445 108.586C70.1445 104.176 74.1279 100.588 79.0241 100.588C83.9203 100.588 87.9033 104.176 87.9033 108.586ZM40.1856 125.276C40.1856 131.647 34.432 136.83 27.3598 136.83C20.2876 136.83 14.534 131.647 14.534 125.276C14.534 118.905 20.2876 113.722 27.3598 113.722C34.432 113.722 40.1856 118.905 40.1856 125.276ZM4.64535 144.124V106.428H19.3708V111.286C13.7456 113.904 9.88896 119.19 9.88896 125.276C9.88896 131.362 13.7459 136.648 19.3708 139.266V144.124H4.64535ZM50.6964 138.936C46.3354 138.503 42.0753 138.08 38.0282 137.727C42.1619 134.846 44.831 130.338 44.831 125.276C44.831 120.713 42.6622 116.599 39.2071 113.722H40.539C40.835 113.722 41.1283 113.671 41.403 113.572L66.2454 104.603C65.7509 105.884 65.4985 107.23 65.4988 108.587C65.4988 115.305 71.5659 120.771 79.0237 120.771C81.0322 120.772 83.0156 120.369 84.8281 119.589L114.952 129.046L111.679 140.09C94.658 143.308 70.8068 140.937 50.6964 138.936ZM157.397 117.058L125.452 135.171C125.422 135.188 125.393 135.206 125.364 135.224C125.296 135.266 125.224 135.307 125.156 135.349L120.898 128.49L153.844 111.354C155.577 110.453 157.801 110.99 158.802 112.551C159.779 114.077 159.163 116.057 157.397 117.058ZM75.9747 108.587C75.9747 107.074 77.3444 105.84 79.0241 105.84C80.7037 105.84 82.0731 107.074 82.0731 108.587C82.0731 110.1 80.7033 111.334 79.0241 111.334C77.3444 111.333 75.9747 110.099 75.9747 108.587ZM24.3108 125.276C24.3108 123.763 25.6805 122.529 27.3601 122.529C29.0394 122.529 30.4095 123.763 30.4095 125.276C30.4095 126.789 29.0397 128.023 27.3601 128.023C25.6805 128.023 24.3108 126.789 24.3108 125.276Z"/>
</mask>
<path d="M67.0059 57.6804C66.7008 57.6804 66.3988 57.7345 66.117 57.8397C65.8352 57.9448 65.5791 58.0989 65.3634 58.2932L52.587 69.8027C51.2283 69.0927 49.6853 68.7193 48.1146 68.7203C43.1746 68.7203 39.1557 72.3407 39.1557 76.7909C39.1557 81.241 43.1746 84.8614 48.1146 84.8614C53.0546 84.8614 57.0734 81.241 57.0734 76.7909C57.0734 75.3238 56.6345 73.9482 55.872 72.7616L67.9681 61.8649H92.186C92.3473 62.7001 92.7911 63.4701 93.4568 64.0693L98.3497 68.477C99.2177 69.259 100.372 69.6897 101.599 69.6897C102.827 69.6897 103.981 69.259 104.849 68.477C106.707 66.8025 109.07 66.8414 110.662 67.4353C112.254 68.0293 113.955 69.5077 113.955 71.875C113.955 74.1578 116.017 76.0149 118.551 76.0149H125.47C128.004 76.0149 130.066 74.1578 130.066 71.875C130.066 69.5118 131.768 68.0346 133.361 67.4404C134.954 66.8459 137.318 66.8058 139.172 68.477C140.04 69.259 141.194 69.6897 142.422 69.6897C143.65 69.6897 144.804 69.259 145.672 68.477L150.564 64.0693C150.992 63.6858 151.332 63.2296 151.563 62.7272C151.794 62.2247 151.912 61.686 151.91 61.1421C151.91 60.0361 151.432 58.9965 150.564 58.2149C148.71 56.544 148.754 54.4149 149.414 52.9798C150.074 51.5447 151.714 50.011 154.337 50.011C156.871 50.011 158.932 48.1539 158.932 45.8712V39.6377C158.932 37.3552 156.871 35.4981 154.337 35.4981C151.714 35.4981 150.074 33.9647 149.414 32.5294C148.754 31.0943 148.71 28.9652 150.564 27.2943C150.992 26.9108 151.332 26.4546 151.563 25.9521C151.794 25.4497 151.912 24.9109 151.91 24.3671C151.91 23.2611 151.432 22.2212 150.564 21.4399L145.672 17.0318C144.804 16.2499 143.65 15.8195 142.422 15.8195C141.195 15.8195 140.04 16.2499 139.173 17.0318C137.318 18.7027 134.955 18.6633 133.361 18.0685C131.768 17.4739 130.066 15.9967 130.066 13.6336C130.066 11.3508 128.004 9.49367 125.471 9.49367H118.551C116.017 9.49367 113.956 11.3508 113.956 13.6336C113.956 15.9967 112.254 17.4739 110.66 18.0685C109.067 18.6627 106.704 18.7027 104.849 17.0315C103.057 15.4177 100.141 15.4177 98.3497 17.0315L93.4568 21.4393C92.7899 22.038 92.3453 22.8081 92.184 23.6437H67.9678L55.872 12.7473C56.6601 11.5232 57.0746 10.1331 57.0734 8.718C57.0734 4.26784 53.0546 0.647461 48.1146 0.647461C43.1746 0.647461 39.1557 4.26784 39.1557 8.718C39.1557 13.1681 43.1746 16.7885 48.1146 16.7885C49.7427 16.7885 51.2697 16.3931 52.587 15.7065L65.3634 27.216C65.5791 27.4103 65.8351 27.5644 66.117 27.6696C66.3988 27.7747 66.7008 27.8288 67.0059 27.8287H93.9691C95.2911 29.4004 95.1988 31.2432 94.6072 32.5297C93.9472 33.965 92.3074 35.4984 89.6841 35.4984C87.1504 35.4984 85.0889 37.3555 85.0889 39.638V40.6624H66.7656C65.7397 37.2237 62.2507 34.6842 58.114 34.6842C53.174 34.6842 49.1551 38.3046 49.1551 42.7547C49.1551 47.2049 53.174 50.8253 58.114 50.8253C62.2507 50.8253 65.7397 48.2857 66.7656 44.8471H85.0889V45.8715C85.0889 48.1542 87.1504 50.0113 89.6841 50.0113C92.3074 50.0113 93.9472 51.5447 94.6072 52.9801C95.1985 54.2663 95.2907 56.1091 93.9691 57.6807L67.0059 57.6804ZM48.1146 80.677C45.7361 80.677 43.801 78.9338 43.801 76.7912C43.801 74.6486 45.7361 72.9054 48.1146 72.9054C50.493 72.9054 52.4281 74.6486 52.4281 76.7912C52.4278 78.9338 50.493 80.677 48.1146 80.677ZM48.1146 12.6038C45.7361 12.6038 43.801 10.8606 43.801 8.718C43.801 6.57542 45.7361 4.83218 48.1146 4.83218C50.493 4.83218 52.4281 6.57542 52.4281 8.718C52.4281 10.8606 50.493 12.6038 48.1146 12.6038ZM58.114 46.6405C55.7356 46.6405 53.8005 44.8973 53.8005 42.7547C53.8005 40.6122 55.7356 38.8689 58.114 38.8689C60.4924 38.8689 62.4275 40.6122 62.4275 42.7547C62.4275 44.8973 60.4924 46.6405 58.114 46.6405ZM89.7342 45.8266V39.6828C93.8218 39.6655 97.3307 37.5415 98.8992 34.1309C100.468 30.7201 99.6534 26.9831 96.7766 24.3671L101.599 20.0224C104.503 22.6143 108.652 23.3472 112.438 21.9345C116.224 20.5216 118.582 17.3609 118.601 13.6784H125.421C125.44 17.3609 127.798 20.5219 131.584 21.9345C135.37 23.3472 139.518 22.6143 142.422 20.0224L147.245 24.3671C144.368 26.9831 143.554 30.7198 145.123 34.1309C146.691 37.5418 150.2 39.6658 154.287 39.6828V45.8266C150.2 45.844 146.691 47.968 145.123 51.3785C143.554 54.7894 144.368 58.5261 147.245 61.1424L142.423 65.487C139.519 62.8952 135.37 62.162 131.584 63.5749C127.798 64.9879 125.44 68.1482 125.421 71.8311H118.601C118.582 68.1449 116.225 64.9825 112.44 63.5701C108.655 62.1578 104.506 62.8928 101.599 65.4873L96.7766 61.1427C99.6537 58.5267 100.468 54.7897 98.8992 51.3788C97.331 47.968 93.8221 45.844 89.7342 45.8266ZM122.01 60.0786C132.614 60.0786 141.241 52.3073 141.241 42.7547C141.241 33.2022 132.614 25.4309 122.01 25.4309C111.407 25.4309 102.78 33.2022 102.78 42.7547C102.78 52.3073 111.407 60.0786 122.01 60.0786ZM122.01 29.6159C130.053 29.6159 136.596 35.5101 136.596 42.755C136.596 50 130.053 55.8942 122.01 55.8942C113.968 55.8942 107.425 50 107.425 42.755C107.425 35.5101 113.968 29.6159 122.01 29.6159ZM162.825 110.458C160.543 106.899 155.473 105.676 151.522 107.73L117.512 125.418L89.2505 116.546C89.5973 116.186 89.9206 115.809 90.2187 115.415L107.816 113.104C112.763 112.455 116.219 109.227 116.219 105.255C116.219 100.915 112.299 97.3836 107.481 97.3836H84.3367C82.658 96.7351 80.8503 96.4014 79.0237 96.4029C77.0593 96.4017 75.1185 96.7884 73.3378 97.5357L73.3368 97.534L40.0904 109.537H24.0161V104.336C24.0161 103.781 23.7714 103.249 23.3358 102.856C22.9003 102.464 22.3095 102.244 21.6935 102.244H2.32268C1.70666 102.244 1.11588 102.464 0.680296 102.856C0.24471 103.249 0 103.781 0 104.336V146.216C0 146.771 0.24471 147.303 0.680296 147.696C1.11588 148.088 1.70666 148.308 2.32268 148.308H21.6935C22.3095 148.308 22.9003 148.088 23.3358 147.696C23.7714 147.303 24.0161 146.771 24.0161 146.216V141.044C31.2718 141.216 40.4832 142.131 50.1867 143.096C63.2634 144.397 78.0296 145.865 91.4653 145.865C91.9049 145.865 92.3429 145.864 92.7796 145.86C108.905 145.742 120.416 143.396 127.97 138.688L159.872 120.599C163.759 118.395 165.056 113.941 162.825 110.458ZM118.519 133.232L121.101 137.392C119.764 137.947 118.344 138.439 116.848 138.872L118.519 133.232ZM111.573 105.255C111.573 107.415 109.35 108.674 107.146 108.963L92.2985 110.913C92.4611 110.159 92.5487 109.382 92.5487 108.586C92.5487 105.974 91.6285 103.554 90.069 101.568H107.481C109.737 101.568 111.573 103.222 111.573 105.255ZM87.9033 108.586C87.9033 112.997 83.9203 116.585 79.0241 116.585C74.1279 116.585 70.1445 112.997 70.1445 108.586C70.1445 104.176 74.1279 100.588 79.0241 100.588C83.9203 100.588 87.9033 104.176 87.9033 108.586ZM40.1856 125.276C40.1856 131.647 34.432 136.83 27.3598 136.83C20.2876 136.83 14.534 131.647 14.534 125.276C14.534 118.905 20.2876 113.722 27.3598 113.722C34.432 113.722 40.1856 118.905 40.1856 125.276ZM4.64535 144.124V106.428H19.3708V111.286C13.7456 113.904 9.88896 119.19 9.88896 125.276C9.88896 131.362 13.7459 136.648 19.3708 139.266V144.124H4.64535ZM50.6964 138.936C46.3354 138.503 42.0753 138.08 38.0282 137.727C42.1619 134.846 44.831 130.338 44.831 125.276C44.831 120.713 42.6622 116.599 39.2071 113.722H40.539C40.835 113.722 41.1283 113.671 41.403 113.572L66.2454 104.603C65.7509 105.884 65.4985 107.23 65.4988 108.587C65.4988 115.305 71.5659 120.771 79.0237 120.771C81.0322 120.772 83.0156 120.369 84.8281 119.589L114.952 129.046L111.679 140.09C94.658 143.308 70.8068 140.937 50.6964 138.936ZM157.397 117.058L125.452 135.171C125.422 135.188 125.393 135.206 125.364 135.224C125.296 135.266 125.224 135.307 125.156 135.349L120.898 128.49L153.844 111.354C155.577 110.453 157.801 110.99 158.802 112.551C159.779 114.077 159.163 116.057 157.397 117.058ZM75.9747 108.587C75.9747 107.074 77.3444 105.84 79.0241 105.84C80.7037 105.84 82.0731 107.074 82.0731 108.587C82.0731 110.1 80.7033 111.334 79.0241 111.334C77.3444 111.333 75.9747 110.099 75.9747 108.587ZM24.3108 125.276C24.3108 123.763 25.6805 122.529 27.3601 122.529C29.0394 122.529 30.4095 123.763 30.4095 125.276C30.4095 126.789 29.0397 128.023 27.3601 128.023C25.6805 128.023 24.3108 126.789 24.3108 125.276Z" fill="black" stroke="black" stroke-width="2" mask="url(#path-1-inside-1_1_386)"/>
</svg>
