<svg width="144" height="152" viewBox="0 0 144 152" fill="none" xmlns="http://www.w3.org/2000/svg">
<path fill-rule="evenodd" clip-rule="evenodd" d="M72.8767 27.5138L113.204 45.3496C113.627 45.5367 113.987 45.8477 114.241 46.2441C114.494 46.6406 114.629 47.105 114.629 47.5798V81.2261C114.629 105.814 97.2863 127.061 73.8247 131.281L72.3552 131.546C72.0872 131.594 71.813 131.594 71.545 131.546L70.0767 131.281C46.6139 127.061 29.2712 105.814 29.2712 81.2261V47.5798C29.2712 47.105 29.4062 46.6406 29.6595 46.2441C29.9128 45.8477 30.2733 45.5367 30.6963 45.3496L71.0235 27.5138C71.3163 27.3843 71.6315 27.3175 71.9501 27.3175C72.2687 27.3175 72.5839 27.3843 72.8767 27.5138ZM71.9501 32.3838L33.9746 49.1798V81.2261C33.9746 103.466 49.6623 122.683 70.8845 126.5L71.9501 126.692L73.0157 126.5C94.2379 122.683 109.926 103.466 109.926 81.2261V49.1798L71.9501 32.3838ZM90.4737 69.5901H91.7515C94.68 69.5901 97.0547 72.053 97.0547 75.0618V107.537C97.0547 110.559 94.68 113.009 91.7515 113.009H52.1554C49.2284 113.009 46.8455 110.557 46.8455 107.537V75.0618C46.8455 72.0545 49.2284 69.5901 52.1554 69.5901H53.4265V65.007C53.4265 54.4939 61.7645 45.8907 71.9536 45.8907C82.143 45.8907 90.4737 54.4936 90.4737 65.007V69.5901ZM58.13 69.5901H60.8362V65.007C60.8362 58.7075 65.8568 53.529 71.9536 53.529C78.0502 53.529 83.0708 58.7075 83.0708 65.007V69.5901H85.7703V65.007C85.7703 57.1633 79.5556 50.7437 71.9536 50.7437C64.3511 50.7437 58.13 57.163 58.13 65.007V69.5901ZM65.5396 69.5901H78.3673V65.007C78.3673 61.3718 75.4718 58.382 71.9536 58.382C68.4355 58.382 65.5396 61.3718 65.5396 65.007V69.5901ZM52.1554 74.4431C51.8226 74.4431 51.549 74.72 51.549 75.0618V107.537C51.549 107.88 51.8226 108.156 52.1554 108.156H91.7515C91.9106 108.156 92.0631 108.091 92.1756 107.975C92.2881 107.858 92.3512 107.701 92.3512 107.537V75.0618C92.3512 74.7215 92.0828 74.4431 91.7515 74.4431H52.1554ZM71.9536 77.2848C76.4292 77.2848 80.0576 81.0356 80.0576 85.6538C80.0602 86.8391 79.8178 88.0113 79.3466 89.0923C78.8754 90.1733 78.1863 91.1382 77.3252 91.9227V99.7716C77.3252 102.826 74.9012 105.314 71.9536 105.314C68.9937 105.314 66.5817 102.826 66.5817 99.7716C66.5817 99.7716 66.5817 91.923 66.582 91.9233C64.9017 90.3913 63.8426 88.1522 63.8426 85.6538C63.8426 81.0365 67.4786 77.2848 71.9536 77.2848ZM71.9536 82.1378C70.0734 82.1378 68.546 83.7139 68.546 85.6538C68.546 86.9208 69.1951 88.0288 70.1678 88.6475C70.5093 88.8648 70.7913 89.1687 70.9869 89.5302C71.1825 89.8917 71.2852 90.2988 71.2852 90.7128V99.7716C71.2855 99.9543 71.3561 100.13 71.4814 100.259C71.6067 100.388 71.7765 100.461 71.9536 100.461C72.1307 100.46 72.3003 100.388 72.4255 100.258C72.5507 100.129 72.6213 99.9542 72.6218 99.7716V90.7128C72.6219 90.2988 72.7246 89.8917 72.9201 89.5302C73.1157 89.1687 73.3977 88.8649 73.7392 88.6475C74.2341 88.3328 74.6425 87.8923 74.9253 87.3681C75.208 86.844 75.3557 86.2537 75.3542 85.6538C75.3542 83.7148 73.8326 82.1378 71.9536 82.1378ZM20.4402 0.953613C31.1699 0.953613 39.8806 9.9417 39.8806 21.0123C39.8806 32.083 31.1699 41.071 20.4402 41.071C9.71076 41.071 1 32.083 1 21.0123C1 9.9417 9.71076 0.953613 20.4402 0.953613ZM20.4402 5.80663C12.3068 5.80663 5.70343 12.62 5.70343 21.0123C5.70343 29.4044 12.3068 36.218 20.4402 36.218C28.5739 36.218 35.1772 29.4044 35.1772 21.0123C35.1772 12.62 28.5739 5.80663 20.4402 5.80663ZM11.1776 23.2016C10.7365 22.7468 10.4884 22.1299 10.4878 21.4864C10.4873 20.843 10.7343 20.2256 11.1747 19.77C11.6155 19.3148 12.2134 19.0588 12.837 19.0582C13.4607 19.0576 14.059 19.3125 14.5006 19.7669L17.3494 22.7018L26.4617 14.1769C26.924 13.7449 27.5335 13.5199 28.1564 13.5514C28.7793 13.5828 29.3647 13.8681 29.7838 14.3446C30.6554 15.3367 30.5828 16.8727 29.6213 17.772L18.8513 27.8478C18.4042 28.2659 17.8184 28.4908 17.2151 28.4758C16.6118 28.4608 16.0372 28.2072 15.61 27.7674L11.1776 23.2016ZM123.46 0.953613C134.189 0.953613 142.9 9.9417 142.9 21.0123C142.9 32.083 134.189 41.071 123.46 41.071C112.73 41.071 104.02 32.083 104.02 21.0123C104.02 9.9417 112.73 0.953613 123.46 0.953613ZM123.46 5.80663C115.326 5.80663 108.723 12.62 108.723 21.0123C108.723 29.4044 115.326 36.218 123.46 36.218C131.593 36.218 138.197 29.4044 138.197 21.0123C138.197 12.62 131.593 5.80663 123.46 5.80663ZM114.197 23.2016C113.756 22.7468 113.508 22.1299 113.507 21.4864C113.507 20.843 113.754 20.2256 114.194 19.77C114.635 19.3148 115.233 19.0588 115.857 19.0582C116.48 19.0576 117.079 19.3125 117.52 19.7669L120.369 22.7018L129.482 14.1769C130.443 13.2772 131.932 13.3525 132.803 14.3446C133.675 15.3367 133.602 16.8727 132.641 17.772L121.871 27.8478C121.424 28.2659 120.838 28.4908 120.235 28.4758C119.631 28.4608 119.057 28.2072 118.63 27.7674L114.197 23.2016ZM123.46 111.28C134.189 111.28 142.9 120.268 142.9 131.338C142.9 142.409 134.189 151.397 123.46 151.397C112.73 151.397 104.02 142.409 104.02 131.338C104.02 120.268 112.73 111.28 123.46 111.28ZM123.46 116.133C115.326 116.133 108.723 122.946 108.723 131.338C108.723 139.731 115.326 146.544 123.46 146.544C131.593 146.544 138.197 139.731 138.197 131.338C138.197 122.946 131.593 116.133 123.46 116.133ZM114.197 133.528C113.279 132.582 113.277 131.044 114.194 130.096C114.635 129.641 115.233 129.385 115.857 129.384C116.48 129.384 117.079 129.639 117.52 130.093L120.369 133.028L129.482 124.503C129.944 124.071 130.553 123.846 131.176 123.877C131.799 123.909 132.384 124.194 132.803 124.671C133.222 125.147 133.44 125.776 133.41 126.419C133.379 127.062 133.103 127.666 132.641 128.098L121.871 138.174C121.424 138.592 120.838 138.817 120.235 138.802C119.631 138.787 119.057 138.533 118.63 138.093L114.197 133.528ZM20.4402 111.28C31.1699 111.28 39.8806 120.268 39.8806 131.338C39.8806 142.409 31.1699 151.397 20.4402 151.397C9.71076 151.397 1 142.409 1 131.338C1 120.268 9.71076 111.28 20.4402 111.28ZM20.4402 116.133C12.3068 116.133 5.70343 122.946 5.70343 131.338C5.70343 139.731 12.3068 146.544 20.4402 146.544C28.5739 146.544 35.1772 139.731 35.1772 131.338C35.1772 122.946 28.5739 116.133 20.4402 116.133ZM11.1776 133.528C10.259 132.582 10.2578 131.044 11.1747 130.096C11.6155 129.641 12.2135 129.385 12.8371 129.384C13.4607 129.384 14.0591 129.639 14.5006 130.093L17.3494 133.028L26.4617 124.503C26.924 124.071 27.5335 123.846 28.1564 123.877C28.7793 123.909 29.3646 124.194 29.7838 124.671C30.2025 125.147 30.4205 125.776 30.39 126.419C30.3596 127.062 30.0831 127.666 29.6213 128.098L18.8513 138.174C18.4042 138.592 17.8184 138.817 17.2151 138.802C16.6118 138.787 16.0371 138.533 15.61 138.093L11.1776 133.528ZM14.709 104.173C14.9501 104.766 14.9529 105.434 14.7169 106.03C14.4808 106.625 14.0253 107.1 13.4503 107.349C12.8751 107.598 12.2278 107.6 11.6506 107.357C11.0733 107.113 10.6134 106.643 10.3719 106.05C7.04332 97.8643 5.20281 88.8771 5.20281 79.4499C5.20281 67.6649 8.07837 56.5676 13.1431 46.864C13.7586 45.685 15.1861 45.2431 16.3288 45.8783C16.8778 46.1836 17.2868 46.7013 17.4659 47.3177C17.6451 47.9341 17.5797 48.5986 17.2842 49.1653C12.5772 58.1834 9.90624 68.4975 9.90624 79.4499C9.90624 88.2117 11.6154 96.5646 14.709 104.173ZM95.9985 138.473C96.5732 138.224 97.2205 138.22 97.7981 138.462C98.3757 138.705 98.8363 139.174 99.0786 139.767C99.3206 140.36 99.3245 141.028 99.0894 141.624C98.8543 142.22 98.3995 142.695 97.8249 142.945C89.8661 146.406 81.123 148.32 71.9501 148.32C62.3366 148.32 53.1952 146.218 44.9339 142.436C44.364 142.175 43.9178 141.691 43.6935 141.09C43.4692 140.49 43.4851 139.822 43.7377 139.234C43.991 138.646 44.46 138.186 45.0419 137.954C45.6238 137.723 46.2709 137.739 46.8411 138C54.5192 141.514 63.0153 143.467 71.9501 143.467C80.4754 143.467 88.6014 141.689 95.9985 138.473ZM126.545 49.0306C126.249 48.4646 126.182 47.8003 126.36 47.1835C126.537 46.5667 126.945 46.0479 127.493 45.7411C128.042 45.4349 128.686 45.3659 129.283 45.5493C129.881 45.7326 130.384 46.1534 130.681 46.719C135.793 56.4572 138.697 67.6064 138.697 79.4499C138.697 88.8778 136.857 97.8655 133.528 106.052C133.286 106.645 132.826 107.115 132.249 107.358C131.672 107.602 131.024 107.599 130.449 107.35C129.874 107.101 129.419 106.627 129.183 106.031C128.947 105.435 128.95 104.768 129.191 104.174C132.285 96.5655 133.994 88.212 133.994 79.4499C133.994 68.4429 131.296 58.0808 126.545 49.0306ZM48.482 20.1779C47.2809 20.6854 45.9063 20.0909 45.4145 18.8515C44.9227 17.6122 45.4986 16.1942 46.6997 15.6868C54.4907 12.3952 63.0165 10.5799 71.9501 10.5799C81.0704 10.5799 89.7655 12.4719 97.6876 15.8948C98.2627 16.1436 98.7186 16.6178 98.955 17.2132C99.1914 17.8087 99.189 18.4766 98.9484 19.0702C98.7073 19.6636 98.2477 20.134 97.6706 20.3779C97.0935 20.6219 96.4462 20.6194 95.8709 20.3711C88.5082 17.19 80.4263 15.4329 71.9501 15.4329C63.6471 15.4329 55.723 17.1187 48.482 20.1779Z" fill="black" stroke="black"/>
</svg>
