<?xml version="1.0" encoding="utf-8"?>
<!-- Generator: Adobe Illustrator 24.3.0, SVG Export Plug-In . SVG Version: 6.00 Build 0)  -->
<svg version="1.1" id="Layer_1" xmlns="http://www.w3.org/2000/svg" xmlns:xlink="http://www.w3.org/1999/xlink" x="0px" y="0px"
	 viewBox="0 0 132 183" style="enable-background:new 0 0 132 183;" xml:space="preserve">
<g>
	<path d="M132,69.96c-2.26,7.92-3.84,16.12-6.94,23.69c-5.08,12.38-14.17,21.64-25.76,28.29c-2.52,1.45-3.47,3.04-3.36,5.9
		c0.22,5.47,0.06,10.96,0.06,16.85c-13.96,3.12-27.71,6.19-41.46,9.25c-3.73,0.83-7.5,1.56-11.2,2.49c-3.45,0.86-6.23,0.01-7.09-3.5
		c-0.88-3.6,1.36-5.47,4.79-6.23c14.78-3.27,29.55-6.6,44.73-10c0-6.24,0-12.5,0-16.97c8.2-6.55,16.12-11.39,22.14-17.97
		c16.83-18.43,18.15-46.25,4.16-67.03C98,13.87,71.43,5.01,47.75,13.3C24.16,21.56,8.74,44.74,10.66,69.53
		c1.58,20.31,11.64,35.32,29.41,45.2c0.73,0.4,1.49,0.73,2.24,1.1c2.87,1.41,4.68,3.47,3.13,6.77c-1.58,3.38-4.27,3.75-7.51,2.21
		C27.8,120,19.37,113.16,12.82,104.03C6.09,94.65,1.94,84.27,0.86,72.72C0.77,71.78,0.29,70.88,0,69.96c0-2.67,0-5.33,0-8
		c0.29-1.11,0.7-2.2,0.86-3.32C4.98,30.51,20.57,11.95,47.53,3C51.57,1.65,55.84,0.98,60,0c4.33,0,8.67,0,13,0
		c0.73,0.31,1.43,0.77,2.18,0.89c28.58,4.61,49.53,24.64,55.26,52.89c0.55,2.72,1.04,5.46,1.56,8.19C132,64.63,132,67.3,132,69.96z"
		/>
	<path d="M40.31,183c-1.41-1.69-4.11-3.55-3.92-5.04c0.25-2.03,2.39-4.89,4.29-5.45c7.3-2.15,14.83-3.53,22.29-5.18
		c8.75-1.93,17.51-3.81,26.25-5.76c3.32-0.74,6.16,0.48,6.37,3.64c0.12,1.88-2.07,5.27-3.79,5.69c-16.44,4.01-33,7.53-49.53,11.18
		c-0.32,0.07-0.66,0.07-0.99,0.1C40.96,182.46,40.64,182.73,40.31,183z"/>
</g>
</svg>
