<?xml version="1.0" encoding="utf-8"?>
<!-- Generator: Adobe Illustrator 24.3.0, SVG Export Plug-In . SVG Version: 6.00 Build 0)  -->
<svg version="1.1" id="Layer_1" xmlns="http://www.w3.org/2000/svg" xmlns:xlink="http://www.w3.org/1999/xlink" x="0px" y="0px"
	 viewBox="0 0 160 189.07" style="enable-background:new 0 0 160 189.07;" xml:space="preserve">
<g>
	<path d="M160,81.02c-2.4,0.64-5.69,2.54-7,1.62c-1.79-1.26-2.85-4.65-2.88-7.14c-0.23-17.49-0.17-34.99-0.08-52.49
		c0.01-2.81-0.36-4.42-3.67-5.19C102.32,7.54,58.3,7.55,14.22,17.68c-3.63,0.83-4.3,2.36-4.29,5.7c0.12,32.33,0.08,64.65,0.07,96.98
		c-0.01,13.75,6.12,24.15,17.94,30.72c16.27,9.05,32.84,17.57,49.4,26.1c1.54,0.8,4.24,0.67,5.83-0.14
		c16.1-8.32,32.21-16.65,48.07-25.43c12.32-6.82,18.88-17.45,18.78-31.81c-0.02-2.17-0.4-4.43,0.1-6.47
		c0.58-2.35,1.43-5.67,3.12-6.42c1.63-0.72,4.47,1.31,6.78,2.13c0,6.34,0,12.67,0,19.01c-0.32,0.74-0.76,1.44-0.94,2.21
		c-3.1,13.22-10.59,23.3-22.41,29.78c-17.79,9.74-35.77,19.13-53.78,28.46c-1.55,0.8-4.21,0.77-5.78-0.01
		c-10.54-5.3-20.93-10.91-31.37-16.42c-5.88-3.1-11.68-6.38-17.66-9.27C13.21,155.6,3.73,144.17,0,128.04C0,89.03,0,50.01,0,11
		c14.46-2.87,28.89-5.92,43.39-8.55C50.19,1.22,57.13,0.79,64,0c10.67,0,21.33,0,32,0c0.94,0.24,1.87,0.66,2.82,0.7
		C119.61,1.78,139.94,5.57,160,11C160,34.34,160,57.68,160,81.02z"/>
	<path d="M42.74,129.99c-1.77-1.49-3.99-2.46-4.17-3.72c-0.29-2.01,0.12-4.79,1.39-6.24c6.38-7.25,13.12-14.18,19.75-21.21
		c18.27-19.4,36.55-38.8,54.83-58.2c0.8-0.85,1.51-2.23,2.44-2.41c2.2-0.44,5.04-1.17,6.67-0.2c2.62,1.56,2.45,4.62,0.39,6.95
		c-3.75,4.25-7.64,8.37-11.52,12.49c-21.47,22.8-42.94,45.6-64.46,68.35C46.66,127.3,44.82,128.38,42.74,129.99z"/>
</g>
</svg>
