<svg width="158" height="33" viewBox="0 0 158 33" fill="none" xmlns="http://www.w3.org/2000/svg">
<path d="M3.76917 25V21.2769H9.90729C11.003 21.2769 11.8527 20.9415 12.4565 20.2706C13.0826 19.5998 13.3956 18.806 13.3956 17.8892C13.3956 17.2631 13.2615 16.6928 12.9931 16.1785C12.7248 15.6642 12.3223 15.2617 11.7856 14.971C11.2713 14.658 10.6452 14.5015 9.90729 14.5015H3.76917V10.8119H9.40417C10.3433 10.8119 11.0924 10.5771 11.6515 10.1075C12.2328 9.63791 12.5235 8.93354 12.5235 7.99437C12.5235 7.03285 12.2328 6.31729 11.6515 5.84771C11.0924 5.37812 10.3433 5.14333 9.40417 5.14333H3.76917V1.42021H9.94083C11.5061 1.42021 12.8142 1.7109 13.8652 2.29229C14.9385 2.85132 15.7435 3.60042 16.2802 4.53958C16.8169 5.45639 17.0852 6.46264 17.0852 7.55833C17.0852 8.9 16.6715 10.0628 15.8442 11.0467C15.0392 12.0082 13.854 12.7237 12.2888 13.1933L12.49 11.7175C14.2342 12.2094 15.5758 13.0256 16.515 14.166C17.4765 15.2841 17.9573 16.6369 17.9573 18.2246C17.9573 19.4768 17.6442 20.6172 17.0181 21.6458C16.4144 22.6521 15.5199 23.4683 14.3348 24.0944C13.172 24.6981 11.7521 25 10.075 25H3.76917ZM0.415 25V1.42021H4.94313V25H0.415ZM20.0992 25V8.79937H24.4932V25H20.0992ZM24.4932 16.0444L22.7826 14.904C22.9838 12.9138 23.5652 11.3485 24.5267 10.2081C25.4883 9.04535 26.8747 8.46396 28.6859 8.46396C29.4685 8.46396 30.1729 8.59812 30.799 8.86646C31.4251 9.11243 31.9954 9.52611 32.5097 10.1075L29.7592 13.2604C29.5133 12.9921 29.2114 12.7908 28.8536 12.6567C28.5182 12.5225 28.1269 12.4554 27.6797 12.4554C26.7405 12.4554 25.969 12.7573 25.3653 13.361C24.7839 13.9424 24.4932 14.8369 24.4932 16.0444ZM39.3637 25.3354C37.8879 25.3354 36.5574 24.9665 35.3722 24.2285C34.1871 23.4906 33.2591 22.4844 32.5883 21.2098C31.9174 19.9352 31.582 18.5041 31.582 16.9165C31.582 15.3065 31.9174 13.8642 32.5883 12.5896C33.2591 11.315 34.1871 10.3087 35.3722 9.57083C36.5574 8.83292 37.8879 8.46396 39.3637 8.46396C40.5265 8.46396 41.5663 8.69875 42.4831 9.16833C43.3999 9.63791 44.1266 10.2976 44.6633 11.1473C45.2223 11.9747 45.5242 12.9138 45.5689 13.9648V19.801C45.5242 20.8744 45.2223 21.8247 44.6633 22.6521C44.1266 23.4794 43.3999 24.1391 42.4831 24.631C41.5663 25.1006 40.5265 25.3354 39.3637 25.3354ZM40.1687 21.2769C41.3986 21.2769 42.3936 20.8744 43.1539 20.0694C43.9142 19.242 44.2943 18.1799 44.2943 16.8829C44.2943 16.0332 44.1154 15.2841 43.7576 14.6356C43.4222 13.9648 42.9415 13.4505 42.3154 13.0927C41.7116 12.7126 40.9961 12.5225 40.1687 12.5225C39.3637 12.5225 38.6481 12.7126 38.022 13.0927C37.4183 13.4505 36.9375 13.9648 36.5797 14.6356C36.2443 15.2841 36.0766 16.0332 36.0766 16.8829C36.0766 17.755 36.2443 18.5265 36.5797 19.1973C36.9375 19.8458 37.4183 20.3601 38.022 20.7402C38.6481 21.098 39.3637 21.2769 40.1687 21.2769ZM44.0595 25V20.6396L44.7639 16.6817L44.0595 12.7908V8.79937H48.4199V25H44.0595ZM62.2019 25V15.709C62.2019 14.7474 61.9 13.9648 61.2963 13.361C60.6925 12.7573 59.9099 12.4554 58.9484 12.4554C58.3222 12.4554 57.7632 12.5896 57.2713 12.8579C56.7793 13.1262 56.388 13.5064 56.0973 13.9983C55.829 14.4903 55.6948 15.0605 55.6948 15.709L53.9842 14.8369C53.9842 13.5623 54.2525 12.4554 54.7892 11.5162C55.3482 10.5547 56.1085 9.80562 57.07 9.26896C58.0539 8.73229 59.1608 8.46396 60.3906 8.46396C61.5758 8.46396 62.6379 8.76583 63.5771 9.36958C64.5163 9.95097 65.2542 10.7224 65.7909 11.684C66.3275 12.6231 66.5959 13.6406 66.5959 14.7362V25H62.2019ZM51.3009 25V8.79937H55.6948V25H51.3009ZM75.9715 25.3354C74.4733 25.3354 73.1317 24.9665 71.9465 24.2285C70.7614 23.4906 69.8222 22.4844 69.129 21.2098C68.4582 19.9352 68.1228 18.5041 68.1228 16.9165C68.1228 15.3065 68.4582 13.8642 69.129 12.5896C69.8222 11.315 70.7502 10.3087 71.913 9.57083C73.0981 8.83292 74.451 8.46396 75.9715 8.46396C77.1343 8.46396 78.1741 8.69875 79.0909 9.16833C80.0301 9.63791 80.7792 10.2976 81.3382 11.1473C81.9196 11.9747 82.2327 12.9138 82.2774 13.9648V19.734C82.2327 20.7849 81.9308 21.7353 81.3718 22.585C80.8127 23.4347 80.0636 24.1056 79.1245 24.5975C78.1853 25.0894 77.1343 25.3354 75.9715 25.3354ZM76.7095 21.2769C77.5368 21.2769 78.2524 21.098 78.8561 20.7402C79.4822 20.3601 79.963 19.8458 80.2984 19.1973C80.6562 18.5265 80.8351 17.755 80.8351 16.8829C80.8351 16.0332 80.6562 15.2841 80.2984 14.6356C79.963 13.9648 79.4822 13.4505 78.8561 13.0927C78.2524 12.7126 77.548 12.5225 76.743 12.5225C75.9156 12.5225 75.1889 12.7126 74.5628 13.0927C73.959 13.4728 73.4783 13.9872 73.1205 14.6356C72.7851 15.2841 72.6174 16.0332 72.6174 16.8829C72.6174 17.755 72.7851 18.5265 73.1205 19.1973C73.4783 19.8458 73.9702 20.3601 74.5963 20.7402C75.2224 21.098 75.9268 21.2769 76.7095 21.2769ZM84.9607 25H80.6003V20.6396L81.3047 16.6817L80.5668 12.7908V0.749372H84.9607V25Z" fill="url(#paint0_linear_1_261)"/>
<path d="M88.3112 25V1.42021H92.8729V25H88.3112ZM91.6654 25V20.9415H103.673V25H91.6654ZM112.694 25.3354C111.062 25.3354 109.586 24.9665 108.267 24.2285C106.97 23.4683 105.93 22.4508 105.147 21.1762C104.387 19.8793 104.007 18.437 104.007 16.8494C104.007 15.2617 104.387 13.8418 105.147 12.5896C105.908 11.315 106.947 10.3087 108.267 9.57083C109.586 8.81055 111.051 8.43042 112.661 8.43042C114.315 8.43042 115.791 8.81055 117.088 9.57083C118.407 10.3087 119.447 11.315 120.207 12.5896C120.968 13.8418 121.348 15.2617 121.348 16.8494C121.348 18.437 120.968 19.8793 120.207 21.1762C119.447 22.4508 118.407 23.4683 117.088 24.2285C115.791 24.9665 114.327 25.3354 112.694 25.3354ZM112.661 21.2433C113.488 21.2433 114.215 21.0644 114.841 20.7067C115.489 20.3265 115.981 19.8122 116.317 19.1637C116.674 18.4929 116.853 17.7326 116.853 16.8829C116.853 16.0332 116.674 15.2841 116.317 14.6356C115.959 13.9872 115.467 13.484 114.841 13.1262C114.215 12.7461 113.488 12.556 112.661 12.556C111.856 12.556 111.14 12.7461 110.514 13.1262C109.888 13.484 109.396 13.9872 109.038 14.6356C108.68 15.2841 108.501 16.0332 108.501 16.8829C108.501 17.7326 108.68 18.4929 109.038 19.1637C109.396 19.8122 109.888 20.3265 110.514 20.7067C111.14 21.0644 111.856 21.2433 112.661 21.2433ZM129.946 32.1779C128.224 32.1779 126.703 31.8649 125.384 31.2388C124.065 30.635 123.014 29.7741 122.231 28.656L125.015 25.8721C125.641 26.61 126.335 27.169 127.095 27.5492C127.877 27.9517 128.817 28.1529 129.912 28.1529C131.276 28.1529 132.35 27.8063 133.132 27.1131C133.937 26.4199 134.34 25.4584 134.34 24.2285V20.17L135.078 16.6146L134.373 13.0592V8.79937H138.734V24.1615C138.734 25.7715 138.354 27.169 137.593 28.3542C136.855 29.5617 135.827 30.5008 134.508 31.1717C133.188 31.8425 131.668 32.1779 129.946 32.1779ZM129.745 24.564C128.291 24.564 126.983 24.2174 125.82 23.5242C124.657 22.8086 123.741 21.8359 123.07 20.606C122.421 19.3762 122.097 18.001 122.097 16.4804C122.097 14.9599 122.421 13.5958 123.07 12.3883C123.741 11.1808 124.657 10.2305 125.82 9.53729C126.983 8.82173 128.291 8.46396 129.745 8.46396C130.952 8.46396 132.014 8.69875 132.931 9.16833C133.87 9.63791 134.608 10.2864 135.145 11.1137C135.681 11.9187 135.972 12.8691 136.017 13.9648V19.0631C135.972 20.1365 135.67 21.098 135.111 21.9477C134.575 22.7751 133.837 23.4235 132.898 23.8931C131.981 24.3403 130.93 24.564 129.745 24.564ZM130.617 20.5725C131.422 20.5725 132.115 20.4048 132.696 20.0694C133.3 19.7116 133.77 19.2308 134.105 18.6271C134.44 18.001 134.608 17.2966 134.608 16.514C134.608 15.709 134.44 15.0046 134.105 14.4008C133.77 13.7971 133.3 13.3275 132.696 12.9921C132.115 12.6343 131.422 12.4554 130.617 12.4554C129.812 12.4554 129.107 12.6343 128.504 12.9921C127.9 13.3275 127.43 13.8083 127.095 14.4344C126.759 15.0381 126.592 15.7313 126.592 16.514C126.592 17.2742 126.759 17.9674 127.095 18.5935C127.43 19.1973 127.9 19.6781 128.504 20.0358C129.107 20.3936 129.812 20.5725 130.617 20.5725ZM149.202 25.3354C147.57 25.3354 146.094 24.9665 144.775 24.2285C143.478 23.4683 142.438 22.4508 141.655 21.1762C140.895 19.8793 140.515 18.437 140.515 16.8494C140.515 15.2617 140.895 13.8418 141.655 12.5896C142.416 11.315 143.455 10.3087 144.775 9.57083C146.094 8.81055 147.559 8.43042 149.169 8.43042C150.823 8.43042 152.299 8.81055 153.596 9.57083C154.915 10.3087 155.955 11.315 156.716 12.5896C157.476 13.8418 157.856 15.2617 157.856 16.8494C157.856 18.437 157.476 19.8793 156.716 21.1762C155.955 22.4508 154.915 23.4683 153.596 24.2285C152.299 24.9665 150.835 25.3354 149.202 25.3354ZM149.169 21.2433C149.996 21.2433 150.723 21.0644 151.349 20.7067C151.997 20.3265 152.489 19.8122 152.825 19.1637C153.182 18.4929 153.361 17.7326 153.361 16.8829C153.361 16.0332 153.182 15.2841 152.825 14.6356C152.467 13.9872 151.975 13.484 151.349 13.1262C150.723 12.7461 149.996 12.556 149.169 12.556C148.364 12.556 147.648 12.7461 147.022 13.1262C146.396 13.484 145.904 13.9872 145.546 14.6356C145.188 15.2841 145.009 16.0332 145.009 16.8829C145.009 17.7326 145.188 18.4929 145.546 19.1637C145.904 19.8122 146.396 20.3265 147.022 20.7067C147.648 21.0644 148.364 21.2433 149.169 21.2433Z" fill="#232339"/>
<defs>
<linearGradient id="paint0_linear_1_261" x1="-2" y1="-28" x2="159" y2="-28" gradientUnits="userSpaceOnUse">
<stop stop-color="#A478E8"/>
<stop offset="1" stop-color="#516CF7"/>
</linearGradient>
</defs>
</svg>
